Patient4_TMGait_0pt6_01_left_30_EMG.mot
version=1
nRows=27
nColumns=33
inDegrees=no
endheader
time	1LAddLong	2LGlutMax	3LGlutMed	4LIliopsoas	5LSemiMemb	6LBicFemLong	7LRecFem	8LVastMed	9LVastLat	10LGasMed	11LTibAnt	12lTibPost	13LPeroneusLong	14LSol	15LExtDigLong	16LFlexDigLong	17RAddLong	18RGlutMax	19RGlutMed	20RIliopsoas	21RSemiMemb	22RBicFemLong	23RRecFem	24RVastMed	25RVastLat	26RGasMed	27RTibAnt	28RTibPost	29RPeroneusLong	30RSol	31RExtDigLong	32RFlexDigLong
37.32	0.014648	0.054626	0.1535	-0.00412	-0.032501	0.10422	-0.20096	0.006866	0.076599	-0.069733	0.005646	-0.027008	0.034027	-0.36545	0.050964	0.010529	0.1239	-0.13718	0.054321	-0.030212	0.26566	-0.51514	-0.12512	-0.16998	-0.15579	0.001373	-0.7988	-0.006104	0.044556	-0.031586	0.001831	-0.005951
37.321	0.015411	0.064697	0.18082	0.001678	-0.025787	0.026855	-0.17868	0.000153	0.087585	-0.082092	0.009155	-0.02655	-0.015717	-0.23682	0.052185	0.021667	0.10071	-0.18112	-0.002594	-0.006866	0.17807	-0.52231	-0.043488	-0.29053	-0.13763	-0.00824	-0.83283	-0.007935	0.013885	-0.061646	0.001526	-0.000458
37.322	0.014191	0.036011	0.20218	0.010834	0.010986	-0.099487	-0.17914	-0.000153	0.078278	-0.07782	0.010223	-0.023956	-0.067596	-0.16541	0.045013	0.040436	0.045471	-0.19745	-0.093994	0.087128	0.1326	-0.41412	-0.13336	-0.22903	0.21469	-0.00473	-0.47363	-0.002594	0.008698	-0.10605	0	-0.000763
37.323	0.016937	0.061188	0.21118	0.000763	-0.002594	-0.16953	-0.15579	0.00473	0.055389	-0.10635	0.020142	-0.021515	-0.04715	0.08728	0.041046	0.019836	-0.01709	-0.27939	-0.047913	0.086517	0.38773	-0.32135	-0.20996	-0.096588	0.53162	0.002594	-0.22644	-0.010834	0.052185	-0.10513	0.002289	-0.002899
37.324	0.010223	0.12283	0.18951	-0.014954	0.023956	-0.215	-0.13992	0.000305	0.047913	-0.09491	0.015411	-0.006866	-0.018311	0.15457	0.041656	-0.004425	-0.035095	-0.28091	0.13657	0.017853	0.48416	-0.2739	-0.17777	-0.023651	0.16174	-0.00061	-0.1239	-0.007019	0.10483	-0.12543	-0.001984	-0.003815
37.325	0.013123	0.048828	0.20721	-0.003357	0.029907	-0.07843	-0.12589	0.000763	0.045624	-0.12024	0.004425	-0.004425	-0.043945	0.18875	0.031586	-0.009003	-0.059509	-0.38345	0.37003	-0.069122	0.40573	-0.24384	-0.11475	-0.065918	-0.34836	0.009308	-0.15518	-0.003204	0.15549	-0.17975	0	0.00061
37.326	0.017548	-0.016632	0.24078	0.007782	0.027924	0.070953	-0.14282	0.002899	0.04715	-0.22507	-0.006866	-0.011597	-0.051117	0.36514	0.011749	-0.028381	-0.034027	-0.35233	0.30533	-0.11108	0.32959	-0.24262	0.07843	-0.13534	-0.44922	0.00946	0.1619	-0.00412	0.086517	-0.16846	0.001526	-0.007019
37.327	0.017853	0.000305	0.29068	0.012665	-0.018463	0.081024	-0.14999	0.002747	0.038147	0.19577	-0.003662	-0.017242	-0.052338	0.29572	0	-0.019226	-0.02182	-0.2945	0.15213	-0.13763	0.19547	-0.16907	0.073547	-0.16876	-0.016327	0.004272	0.089722	-0.000305	-0.11307	-0.030365	0.001526	-0.006409
37.328	0.000916	-0.009918	0.28946	0.007477	-0.02121	0.10559	-0.12314	0.005951	0.015411	0.61417	0.00824	-0.019226	-0.076141	0.089874	-0.028229	0.011749	-0.019379	-0.31906	-0.042725	-0.045166	0.15762	-0.14954	0.028839	-0.19134	0.15701	-0.006409	-0.059967	-0.010071	-0.012817	0.057068	-0.000458	-0.005035
37.329	-0.000763	-0.006866	0.3122	0.010834	-0.013123	0.10208	-0.12405	-0.000153	0.018616	0.51804	-0.005646	-0.031281	0.036011	-0.36697	-0.006866	0.006561	0.026245	-0.20996	-0.29373	0.000305	0.20218	-0.17654	-0.026703	-0.040131	0.11032	0.005493	0.018616	-0.007477	0.18662	-0.062256	0.001984	0.002594
37.33	0.006866	-0.011139	0.38574	-0.001221	0.001984	0.049744	-0.15411	-0.003815	0.021057	-0.086365	-0.010071	-0.019989	0.14481	-0.48584	0.01358	-0.04425	0.052795	-0.091553	-0.48523	0.038605	0.18463	-0.1593	-0.091553	0.242	-0.1944	-0.00351	-0.027618	-0.003204	0.13412	-0.065155	0.003357	-0.007935
37.331	0.005646	-0.028534	0.42389	-0.010529	-0.022583	0.069885	-0.12054	0.00473	0.006714	-0.079193	-0.010681	-0.019684	0.15625	-0.43945	0.00824	-0.047455	0.027466	0.03006	-0.3244	0.071716	0.055847	0.010376	-0.47867	0.82474	-0.36835	-0.011139	-0.29572	0.005493	0.09613	0.008545	0.001373	-0.012665
37.332	0.011749	0.04303	0.47211	-0.002899	-0.031586	0.060883	-0.13214	0.006104	0.000305	-0.092316	-0.010529	-0.016327	0.1445	-0.14343	-0.013123	-0.014648	0.032806	0.28198	-0.10605	0.062866	0.064545	0.26001	-0.50384	0.75836	-0.13504	-0.007782	-0.22598	-0.003662	0.053406	0.059357	0.001831	-0.011902
37.333	0.008392	0.037079	0.49362	-0.003052	-0.003052	0.06012	-0.11322	0.007324	0.000763	-0.20111	0.004578	-0.015259	0.090942	0.17578	0.004272	0.012207	-0.018005	0.25253	0.31067	0.075989	0.095215	0.41199	-0.51697	0.79102	0.16266	-0.005646	-0.11215	-0.005493	0.039978	0.11429	0.000763	-0.006256
37.334	0.001984	0.002747	0.5014	-0.008545	-0.017242	0.078583	-0.095978	0.008698	-0.013733	-0.23438	0.013885	0.003815	0.044403	0.20416	-0.020905	-0.005188	-0.006714	0.24765	0.82367	0.10925	0.10666	0.35202	-0.35797	0.28702	-0.075531	-0.000458	-0.18341	-0.002289	0.19791	0.12268	-0.000153	-0.003052
37.335	-0.006409	0.038757	0.48508	-0.016174	-0.049896	0.041504	-0.076141	0.010071	-0.023804	-0.21668	0.046082	0.0177	0.00824	0.12238	-0.015564	-0.007324	0.000763	0.13092	0.68863	0.086212	0.072327	0.18173	-0.25467	-0.19486	-0.35385	-0.001678	-0.11276	-0.001221	0.043793	0.11185	-0.000153	-0.006561
37.336	0.003204	0.032501	0.47638	-0.002747	-0.062561	-0.021973	-0.050659	0.007324	-0.03067	-0.15793	0.05249	0.018921	0.019073	0.062408	-0.020447	-0.002136	0.003815	0.09552	0.40161	0.009613	0.13657	0.034637	-0.37033	-0.37994	-0.42358	0.001221	-0.046844	-0.004272	0.001373	0.12146	-0.000458	-0.000305
37.337	0.011902	0.042725	0.47073	-0.001068	-0.036469	-0.06897	-0.046997	0.006714	-0.030212	-0.082703	0.046082	0.017853	-0.001373	0.097961	-0.030212	-0.005646	-0.002594	0.1564	0.005493	-0.085907	0.20767	-0.10391	-0.46783	-0.31189	-0.19104	-0.001678	-0.035553	-0.001068	0.112	0.087738	-0.00061	-0.00885
37.338	0.01709	0.023804	0.50751	-0.002441	0.055847	-0.097351	-0.037384	0.000458	-0.033264	-0.018768	-0.03006	0.005798	-0.00473	0.13992	-0.023193	0.009918	0.002441	0.032959	-0.095367	-0.19302	0.16968	-0.18005	-0.35172	-0.4834	0.25497	-0.003662	-0.028687	-0.002136	0.24857	0.03952	0.000305	0.001831
37.339	0.006714	-0.004578	0.52078	-0.021667	0.0737	-0.071564	-0.019989	0.000916	-0.037689	0.045929	-0.015564	0.006714	-0.010529	0.14053	0.006714	-0.00946	0.004578	-0.13184	0.28137	-0.10407	0.1532	-0.2211	-0.29388	-0.41565	0.50552	-0.006714	0.024109	-0.004272	0.33814	0.069427	0.002899	-0.001373
37.34	0.008698	0.031433	0.54443	0.004578	0.005341	-0.018921	-0.008392	-0.002136	-0.028992	0.054626	-0.009155	-0.006409	-0.022125	0.033417	0.024109	-0.0177	0.012054	-0.16312	0.22278	-0.0177	0.1973	-0.35111	-0.35507	0.10712	0.46387	-0.009308	0.23453	0.000763	-0.44266	0.050964	0.003204	-0.00061
37.341	0.005798	0.038605	0.59204	-0.018921	-0.011902	0.012054	0.001831	0.003052	-0.031433	0.023499	0.003052	-0.009003	-0.002136	-0.08728	0.038757	-0.036621	0.001526	-0.016022	-0.14648	0.053101	0.21835	-0.34302	-0.28778	0.15091	0.41519	-0.007019	0.42419	-0.00061	-0.38406	0.045471	-0.00061	-0.010834
37.342	0.000153	0.032654	0.62607	-0.014801	-0.026855	0.055695	0.019073	0.004425	-0.035706	0.068665	-0.019531	-0.002899	0.013428	-0.029449	0.085144	-0.01358	0.001373	0.070496	-0.11047	0.18372	0.19959	-0.27268	-0.003357	-0.001831	0.21149	-0.010681	0.55039	-0.00061	-0.12268	0.03006	0.001221	-0.010223
37.343	0.012817	0.021973	0.59036	0.025024	-0.014954	0.002441	0.018158	0.001984	-0.027466	0.15167	-0.012207	-0.00412	-0.026855	0.06897	0.16068	-0.016174	0.012512	0.15808	-0.27466	0.26474	0.19562	-0.14252	0.17868	-0.14816	0.057373	-0.013123	0.43991	0	-0.17502	0.001068	0.000763	-0.006256
37.344	0.007629	0.031891	0.60425	0.024719	-0.009613	-0.015259	0.046539	0.002747	-0.031433	0.18219	0.020294	-0.00412	-0.041504	0.08667	0.076599	-0.006409	0.010834	0.18036	-0.87158	0.14633	0.11993	-0.003357	0.2121	-0.40604	-0.092468	-0.000458	-0.004883	0.00061	-0.1738	-0.032349	-0.001221	-0.005035
37.345	0.014801	0.049896	0.58868	0.007477	0.032959	-0.025024	0.051727	0.008545	-0.035858	0.16007	0.021057	0.002289	-0.02121	0.11841	-0.014191	-0.003052	0.000763	0.23025	-0.31418	-0.015259	0.068817	0.062561	0.45883	-0.38864	-0.2356	-0.002899	0.031433	0.000458	-0.22583	-0.04303	-0.001068	-0.002899
37.346	0.010529	0.025787	0.54703	-0.008392	0.046692	-0.04837	0.045166	0.005646	-0.024719	0.1355	0.031586	-0.003815	-0.001984	0.11536	-0.11475	0.000916	-0.00824	0.064545	0.59906	-0.13672	0.09491	0.13519	0.51102	-0.16617	-0.34515	-0.003204	0.27039	-0.001984	-0.29343	-0.098419	-0.000763	-0.009155
